<?xml version="1.0" encoding="utf-8"?>
<!-- Generator: Adobe Illustrator 21.1.0, SVG Export Plug-In . SVG Version: 6.00 Build 0)  -->
<svg version="1.1" id="Camada_1" xmlns="http://www.w3.org/2000/svg" xmlns:xlink="http://www.w3.org/1999/xlink" x="0px" y="0px"
	 viewBox="0 0 325 356" style="enable-background:new 0 0 325 356;" xml:space="preserve">
<g id="filazero__x28_fundo_roxo_x29_">
</g>
<g id="fi__x28_fundo_roxo_x29_">
	<g id="fi_3_">
		<polygon id="i__x28_corpo_x29__1_" points="176,173 239.8,173 239.7,173 239.7,347.4 314.4,347.4 314.4,173 314.4,173 314.4,113 
			204.6,113 		"/>
		<path id="i__x28_ponto_x29__1_" d="M277,88.6c24.7,0,42.9-17.7,42.9-41.5c0-22.9-18.2-42.5-42.9-42.5c-25.7,0-43.4,19.6-43.4,42.5
			C233.6,70.9,251.4,88.6,277,88.6z"/>
		<path id="f_1_" d="M123.8,98.7c0-18.7,12.6-29.4,31.3-29.4c5.6,0,12.1,1,31.9,13.7l26-53c-26.8-16.5-53.7-24.7-68.2-24.7
			c-57.4,0-95.1,35-95.1,90.1V113H33.5l-29,60h45.1v174.9h74.2V173h20.7l29-60h-49.7V98.7z"/>
	</g>
</g>
</svg>
