<?xml version="1.0" encoding="utf-8"?>
<!-- Generator: Adobe Illustrator 21.1.0, SVG Export Plug-In . SVG Version: 6.00 Build 0)  -->
<svg version="1.1" id="Camada_1" xmlns="http://www.w3.org/2000/svg" xmlns:xlink="http://www.w3.org/1999/xlink" x="0px" y="0px"
	 viewBox="0 0 325 356" style="enable-background:new 0 0 325 356;" xml:space="preserve">
<style type="text/css">
	.st0{fill:#3A005D;}
</style>
<g id="filazero__x28_fundo_roxo_x29_">
</g>
<g id="fi__x28_fundo_roxo_x29_">
	<g id="fi_4_">
		<polygon id="i__x28_corpo_x29__2_" class="st0" points="176,175 239.8,175 239.7,175 239.7,349.4 314.4,349.4 314.4,175 
			314.4,175 314.4,115 204.6,115 		"/>
		<path id="i__x28_ponto_x29__2_" class="st0" d="M277,90.6c24.7,0,42.9-17.7,42.9-41.5c0-22.9-18.2-42.5-42.9-42.5
			c-25.7,0-43.4,19.6-43.4,42.5C233.6,72.9,251.4,90.6,277,90.6z"/>
		<path id="f_2_" class="st0" d="M123.8,100.7c0-18.7,12.6-29.4,31.3-29.4c5.6,0,12.1,1,31.9,13.7l26-53
			c-26.8-16.5-53.7-24.7-68.2-24.7c-57.4,0-95.1,35-95.1,90.1V115H33.5l-29,60h45.1v174.9h74.2V175h20.7l29-60h-49.7V100.7z"/>
	</g>
</g>
</svg>
