<?xml version="1.0" encoding="utf-8"?>
<!-- Generator: Adobe Illustrator 21.1.0, SVG Export Plug-In . SVG Version: 6.00 Build 0)  -->
<svg version="1.1" id="Camada_1" xmlns="http://www.w3.org/2000/svg" xmlns:xlink="http://www.w3.org/1999/xlink" x="0px" y="0px"
	 viewBox="0 0 500 105.6" style="enable-background:new 0 0 500 105.6;" xml:space="preserve">
<g id="filazero__x28_fundo_roxo_x29_">
	<g id="filazero_2_">
		<path id="o_1_" d="M445.6,34.1c-20.5,0-37.5,14.3-37.5,35.6c0,21.5,17,35.8,37.5,35.8c20.1,0,37.1-14.3,37.1-35.8
			C482.7,48.4,465.7,34.1,445.6,34.1z M445.6,87.3c-8.8,0-16.7-6.9-16.7-17.6c0-10.5,8-17.6,16.7-17.6c8.4,0,16.3,7,16.3,17.6
			C461.9,80.4,453.9,87.3,445.6,87.3z"/>
		<path id="r_1_" d="M410.5,35.4c-1.6-0.4-3-0.5-4.9-0.5c-11.1,0-18.5,5.8-23.4,13.9v-13h-21.6v67.8h21.6V82.4
			c0-17.6,8.2-25.4,23.4-25.4h3.9L410.5,35.4z"/>
		<path id="e_1_" d="M321.2,33.8c-19.7,0-35.9,14.6-35.9,35.9c0,21.5,16.2,35.9,35.8,35.9c15.5,0,27.8-6.9,33.6-21.2l-19.2-3.9
			c-3.6,6.6-9.5,7.8-14.4,7.8c-7.3,0-12.8-5-14.6-13.1h49.7v-5.5C355.8,47.6,340.4,33.8,321.2,33.8z M306.9,62
			c2-6.9,8.2-10.7,14.3-10.7c6.2,0,11.6,3.4,13.6,10.7H306.9z"/>
		<polygon id="z_1_" points="284.2,50 284.2,35.8 223.6,35.8 223.6,53 256.8,53 222.8,89.7 222.8,103.6 285.4,103.6 285.4,86.5 
			250.2,86.5 		"/>
		<path id="a_1_" d="M195.1,41.2c-5.3-4.7-12.3-7.4-21.1-7.4c-18,0-33.1,14.6-33.1,35.9c0,21.5,15.1,35.9,33.1,35.9
			c8.8,0,15.8-2.7,21.1-7.4v5.4h21.6V35.8h-21.6V41.2z M178.5,87.3c-9.5,0-16.3-7-16.3-17.6c0-10.4,6.9-17.6,16.3-17.6
			c8.8,0,16.6,7.2,16.6,17.6C195.1,80.2,187.3,87.3,178.5,87.3z"/>
		<rect id="l_1_" x="114.9" y="6.4" width="21.6" height="97.2"/>
		<g id="fi_5_">
			<polygon points="65.9,54 84.1,54 84.1,54 84.1,103.6 105.3,103.6 105.3,54 105.3,54 105.3,36.9 74.1,36.9 			"/>
			<path d="M94.7,30.3c7,0,12.2-5,12.2-11.8c0-6.5-5.2-12.1-12.2-12.1c-7.3,0-12.3,5.6-12.3,12.1C82.3,25.2,87.4,30.3,94.7,30.3z"/>
			<path d="M51.1,32.9c0-5.3,3.6-8.3,8.9-8.3c1.6,0,3.4,0.3,9,3.9l7.4-15c-7.6-4.7-15.2-7-19.3-7c-16.3,0-27,9.9-27,25.6v5h-4.6
				l-8.2,17h12.8v49.6h21.1V54H57l8.2-17H51.1V32.9z"/>
		</g>
	</g>
</g>
<g id="fi__x28_fundo_roxo_x29_">
</g>
</svg>
