<?xml version="1.0" encoding="utf-8"?>
<!-- Generator: Adobe Illustrator 21.1.0, SVG Export Plug-In . SVG Version: 6.00 Build 0)  -->
<svg version="1.1" id="Camada_1" xmlns="http://www.w3.org/2000/svg" xmlns:xlink="http://www.w3.org/1999/xlink" x="0px" y="0px"
	 viewBox="0 0 465.4 99.2" style="enable-background:new 0 0 465.4 99.2;" xml:space="preserve">
<style type="text/css">
	.st0{fill:#FFFFFF;}
</style>
<g id="filazero__x28_fundo_roxo_x29_">
	<g id="filazero_1_">
		<path id="o" class="st0" d="M428.3,27.7c-20.5,0-37.5,14.3-37.5,35.6c0,21.5,17,35.8,37.5,35.8c20.1,0,37.1-14.3,37.1-35.8
			C465.4,42,448.4,27.7,428.3,27.7z M428.3,80.9c-8.8,0-16.7-6.9-16.7-17.6c0-10.5,8-17.6,16.7-17.6c8.4,0,16.3,7,16.3,17.6
			C444.6,74,436.6,80.9,428.3,80.9z"/>
		<path id="r" class="st0" d="M393.2,29c-1.6-0.4-3-0.5-4.9-0.5c-11.1,0-18.5,5.8-23.4,13.9v-13h-21.6v67.8h21.6V76
			c0-17.6,8.2-25.4,23.4-25.4h3.9L393.2,29z"/>
		<path id="e" class="st0" d="M303.9,27.4C284.2,27.4,268,42,268,63.3c0,21.5,16.2,35.9,35.8,35.9c15.5,0,27.8-6.9,33.6-21.2
			l-19.2-3.9c-3.6,6.6-9.5,7.8-14.4,7.8c-7.3,0-12.8-5-14.6-13.1h49.7v-5.5C338.5,41.2,323.1,27.4,303.9,27.4z M289.6,55.6
			c2-6.9,8.2-10.7,14.3-10.7c6.2,0,11.6,3.4,13.6,10.7H289.6z"/>
		<polygon id="z" class="st0" points="266.9,43.6 266.9,29.4 206.3,29.4 206.3,46.6 239.5,46.6 205.5,83.3 205.5,97.2 268.1,97.2 
			268.1,80.1 232.9,80.1 		"/>
		<path id="a" class="st0" d="M177.8,34.8c-5.3-4.7-12.3-7.4-21.1-7.4c-18,0-33.1,14.6-33.1,35.9c0,21.5,15.1,35.9,33.1,35.9
			c8.8,0,15.8-2.7,21.1-7.4v5.4h21.6V29.4h-21.6V34.8z M161.2,80.9c-9.5,0-16.3-7-16.3-17.6c0-10.4,6.9-17.6,16.3-17.6
			c8.8,0,16.6,7.2,16.6,17.6C177.8,73.8,170,80.9,161.2,80.9z"/>
		<rect id="l" x="97.6" y="0" class="st0" width="21.6" height="97.2"/>
		<g id="fi_2_">
			<polygon class="st0" points="48.6,47.6 66.8,47.6 66.8,47.6 66.8,97.2 88,97.2 88,47.6 88,47.6 88,30.5 56.8,30.5 			"/>
			<path class="st0" d="M77.4,23.9c7,0,12.2-5,12.2-11.8C89.6,5.6,84.4,0,77.4,0c-7.3,0-12.3,5.6-12.3,12.1
				C65,18.8,70.1,23.9,77.4,23.9z"/>
			<path class="st0" d="M33.8,26.5c0-5.3,3.6-8.3,8.9-8.3c1.6,0,3.4,0.3,9,3.9l7.4-15c-7.6-4.7-15.2-7-19.3-7
				c-16.3,0-27,9.9-27,25.6v5H8.2L0,47.7h12.8v49.6h21.1V47.6h5.8l8.2-17H33.8V26.5z"/>
		</g>
	</g>
</g>
<g id="fi__x28_fundo_roxo_x29_">
</g>
</svg>
